<mxfile host="app.diagrams.net" agent="Mozilla/5.0 (Windows NT 10.0; Win64; x64) AppleWebKit/537.36 (KHTML, like Gecko) Chrome/138.0.0.0 Safari/537.36" version="28.0.6">
  <diagram name="Page-1" id="djUVf7lixzEz7X-RKDC4">
    <mxGraphModel dx="1246" dy="627" grid="1" gridSize="10" guides="1" tooltips="1" connect="1" arrows="1" fold="1" page="1" pageScale="1" pageWidth="3300" pageHeight="4681" math="0" shadow="0">
      <root>
        <mxCell id="0" />
        <mxCell id="1" parent="0" />
        <mxCell id="ViGbl6Z4eLXLllgYi30E-6" value="crm_prd_info" style="swimlane;fontStyle=0;childLayout=stackLayout;horizontal=1;startSize=30;horizontalStack=0;resizeParent=1;resizeParentMax=0;resizeLast=0;collapsible=1;marginBottom=0;whiteSpace=wrap;html=1;fillColor=#dae8fc;strokeColor=#6c8ebf;fontSize=17;rounded=1;swimlaneLine=0;" parent="1" vertex="1">
          <mxGeometry x="430" y="220" width="140" height="60" as="geometry" />
        </mxCell>
        <mxCell id="ViGbl6Z4eLXLllgYi30E-7" value="prd_id" style="text;strokeColor=none;fillColor=none;align=left;verticalAlign=middle;spacingLeft=4;spacingRight=4;overflow=hidden;points=[[0,0.5],[1,0.5]];portConstraint=eastwest;rotatable=0;whiteSpace=wrap;html=1;fontSize=17;rounded=1;swimlaneLine=0;" parent="ViGbl6Z4eLXLllgYi30E-6" vertex="1">
          <mxGeometry y="30" width="140" height="30" as="geometry" />
        </mxCell>
        <mxCell id="ViGbl6Z4eLXLllgYi30E-8" value="&lt;font style=&quot;font-size: 14px;&quot;&gt;current &amp;amp; history product information&lt;/font&gt;" style="text;html=1;align=center;verticalAlign=middle;whiteSpace=wrap;rounded=0;strokeColor=none;fillColor=default;" parent="1" vertex="1">
          <mxGeometry x="420" y="180" width="140" height="30" as="geometry" />
        </mxCell>
        <mxCell id="ViGbl6Z4eLXLllgYi30E-9" value="crm_cust_info" style="swimlane;fontStyle=0;childLayout=stackLayout;horizontal=1;startSize=30;horizontalStack=0;resizeParent=1;resizeParentMax=0;resizeLast=0;collapsible=1;marginBottom=0;whiteSpace=wrap;html=1;fillColor=#dae8fc;strokeColor=#6c8ebf;fontSize=17;rounded=1;swimlaneLine=0;" parent="1" vertex="1">
          <mxGeometry x="440" y="390" width="140" height="90" as="geometry" />
        </mxCell>
        <mxCell id="ViGbl6Z4eLXLllgYi30E-10" value="cst_id&lt;div&gt;cst_key&lt;/div&gt;" style="text;strokeColor=none;fillColor=none;align=left;verticalAlign=middle;spacingLeft=4;spacingRight=4;overflow=hidden;points=[[0,0.5],[1,0.5]];portConstraint=eastwest;rotatable=0;whiteSpace=wrap;html=1;fontSize=17;rounded=1;swimlaneLine=0;" parent="ViGbl6Z4eLXLllgYi30E-9" vertex="1">
          <mxGeometry y="30" width="140" height="60" as="geometry" />
        </mxCell>
        <mxCell id="ViGbl6Z4eLXLllgYi30E-11" value="&lt;font style=&quot;font-size: 14px;&quot;&gt;Customer Informaton&lt;/font&gt;" style="text;html=1;align=center;verticalAlign=middle;whiteSpace=wrap;rounded=0;strokeColor=none;fillColor=default;" parent="1" vertex="1">
          <mxGeometry x="440" y="360" width="140" height="30" as="geometry" />
        </mxCell>
        <mxCell id="ViGbl6Z4eLXLllgYi30E-16" value="crm_sales_detalis" style="swimlane;fontStyle=0;childLayout=stackLayout;horizontal=1;startSize=30;horizontalStack=0;resizeParent=1;resizeParentMax=0;resizeLast=0;collapsible=1;marginBottom=0;whiteSpace=wrap;html=1;fillColor=#dae8fc;strokeColor=#6c8ebf;fontSize=17;rounded=1;swimlaneLine=0;" parent="1" vertex="1">
          <mxGeometry x="120" y="240" width="140" height="100" as="geometry" />
        </mxCell>
        <mxCell id="ViGbl6Z4eLXLllgYi30E-17" value="prd_key&lt;div&gt;cst_id&lt;/div&gt;" style="text;strokeColor=none;fillColor=none;align=left;verticalAlign=middle;spacingLeft=4;spacingRight=4;overflow=hidden;points=[[0,0.5],[1,0.5]];portConstraint=eastwest;rotatable=0;whiteSpace=wrap;html=1;fontSize=17;rounded=1;swimlaneLine=0;" parent="ViGbl6Z4eLXLllgYi30E-16" vertex="1">
          <mxGeometry y="30" width="140" height="70" as="geometry" />
        </mxCell>
        <mxCell id="ViGbl6Z4eLXLllgYi30E-18" value="&lt;font style=&quot;font-size: 14px;&quot;&gt;Transactional records about sales &amp;amp; orders&lt;/font&gt;" style="text;html=1;align=center;verticalAlign=middle;whiteSpace=wrap;rounded=0;strokeColor=none;fillColor=default;" parent="1" vertex="1">
          <mxGeometry x="120" y="200" width="140" height="30" as="geometry" />
        </mxCell>
        <mxCell id="ViGbl6Z4eLXLllgYi30E-21" style="edgeStyle=orthogonalEdgeStyle;rounded=0;orthogonalLoop=1;jettySize=auto;html=1;entryX=-0.014;entryY=0.3;entryDx=0;entryDy=0;entryPerimeter=0;" parent="1" source="ViGbl6Z4eLXLllgYi30E-17" target="ViGbl6Z4eLXLllgYi30E-7" edge="1">
          <mxGeometry relative="1" as="geometry" />
        </mxCell>
        <mxCell id="ViGbl6Z4eLXLllgYi30E-23" style="edgeStyle=orthogonalEdgeStyle;rounded=0;orthogonalLoop=1;jettySize=auto;html=1;entryX=0;entryY=0.5;entryDx=0;entryDy=0;" parent="1" source="ViGbl6Z4eLXLllgYi30E-17" target="ViGbl6Z4eLXLllgYi30E-10" edge="1">
          <mxGeometry relative="1" as="geometry" />
        </mxCell>
        <mxCell id="ViGbl6Z4eLXLllgYi30E-28" value="&lt;font style=&quot;font-size: 16px;&quot;&gt;erp_px_cat_g1v2&lt;/font&gt;" style="swimlane;fontStyle=0;childLayout=stackLayout;horizontal=1;startSize=30;horizontalStack=0;resizeParent=1;resizeParentMax=0;resizeLast=0;collapsible=1;marginBottom=0;whiteSpace=wrap;html=1;fillColor=#fff2cc;strokeColor=#d6b656;" parent="1" vertex="1">
          <mxGeometry x="890" y="200" width="190" height="60" as="geometry" />
        </mxCell>
        <mxCell id="ViGbl6Z4eLXLllgYi30E-29" value="&lt;font style=&quot;font-size: 16px;&quot;&gt;id&lt;/font&gt;" style="text;strokeColor=none;fillColor=none;align=left;verticalAlign=middle;spacingLeft=4;spacingRight=4;overflow=hidden;points=[[0,0.5],[1,0.5]];portConstraint=eastwest;rotatable=0;whiteSpace=wrap;html=1;" parent="ViGbl6Z4eLXLllgYi30E-28" vertex="1">
          <mxGeometry y="30" width="190" height="30" as="geometry" />
        </mxCell>
        <mxCell id="ViGbl6Z4eLXLllgYi30E-33" value="&lt;font style=&quot;font-size: 16px;&quot;&gt;Product &lt;/font&gt;&lt;font style=&quot;font-size: 16px;&quot;&gt;Categories&lt;/font&gt;" style="text;html=1;align=center;verticalAlign=middle;whiteSpace=wrap;rounded=0;" parent="1" vertex="1">
          <mxGeometry x="890" y="160" width="180" height="30" as="geometry" />
        </mxCell>
        <mxCell id="ViGbl6Z4eLXLllgYi30E-34" value="&lt;span style=&quot;font-size: 16px;&quot;&gt;erp_cust_az12&lt;/span&gt;" style="swimlane;fontStyle=0;childLayout=stackLayout;horizontal=1;startSize=30;horizontalStack=0;resizeParent=1;resizeParentMax=0;resizeLast=0;collapsible=1;marginBottom=0;whiteSpace=wrap;html=1;fillColor=#fff2cc;strokeColor=#d6b656;" parent="1" vertex="1">
          <mxGeometry x="880" y="360" width="190" height="60" as="geometry" />
        </mxCell>
        <mxCell id="ViGbl6Z4eLXLllgYi30E-35" value="&lt;font style=&quot;font-size: 16px;&quot;&gt;cid&lt;/font&gt;" style="text;strokeColor=none;fillColor=none;align=left;verticalAlign=middle;spacingLeft=4;spacingRight=4;overflow=hidden;points=[[0,0.5],[1,0.5]];portConstraint=eastwest;rotatable=0;whiteSpace=wrap;html=1;" parent="ViGbl6Z4eLXLllgYi30E-34" vertex="1">
          <mxGeometry y="30" width="190" height="30" as="geometry" />
        </mxCell>
        <mxCell id="ViGbl6Z4eLXLllgYi30E-36" value="&lt;span style=&quot;font-size: 16px;&quot;&gt;Extra customer Information (BirthDate)&lt;/span&gt;" style="text;html=1;align=center;verticalAlign=middle;whiteSpace=wrap;rounded=0;" parent="1" vertex="1">
          <mxGeometry x="880" y="300" width="180" height="50" as="geometry" />
        </mxCell>
        <mxCell id="ViGbl6Z4eLXLllgYi30E-37" value="&lt;span style=&quot;font-size: 16px;&quot;&gt;erp_loc_a101&lt;/span&gt;" style="swimlane;fontStyle=0;childLayout=stackLayout;horizontal=1;startSize=30;horizontalStack=0;resizeParent=1;resizeParentMax=0;resizeLast=0;collapsible=1;marginBottom=0;whiteSpace=wrap;html=1;fillColor=#fff2cc;strokeColor=#d6b656;" parent="1" vertex="1">
          <mxGeometry x="885" y="520" width="190" height="60" as="geometry" />
        </mxCell>
        <mxCell id="ViGbl6Z4eLXLllgYi30E-38" value="&lt;font style=&quot;font-size: 16px;&quot;&gt;cid&lt;/font&gt;" style="text;strokeColor=none;fillColor=none;align=left;verticalAlign=middle;spacingLeft=4;spacingRight=4;overflow=hidden;points=[[0,0.5],[1,0.5]];portConstraint=eastwest;rotatable=0;whiteSpace=wrap;html=1;" parent="ViGbl6Z4eLXLllgYi30E-37" vertex="1">
          <mxGeometry y="30" width="190" height="30" as="geometry" />
        </mxCell>
        <mxCell id="ViGbl6Z4eLXLllgYi30E-39" value="&lt;span style=&quot;font-size: 16px;&quot;&gt;Location of customers (country)&lt;/span&gt;" style="text;html=1;align=center;verticalAlign=middle;whiteSpace=wrap;rounded=0;" parent="1" vertex="1">
          <mxGeometry x="885" y="470" width="180" height="40" as="geometry" />
        </mxCell>
        <mxCell id="ViGbl6Z4eLXLllgYi30E-40" style="edgeStyle=orthogonalEdgeStyle;rounded=0;orthogonalLoop=1;jettySize=auto;html=1;entryX=0;entryY=0.5;entryDx=0;entryDy=0;" parent="1" source="ViGbl6Z4eLXLllgYi30E-10" target="ViGbl6Z4eLXLllgYi30E-35" edge="1">
          <mxGeometry relative="1" as="geometry">
            <Array as="points">
              <mxPoint x="730" y="460" />
              <mxPoint x="730" y="405" />
            </Array>
          </mxGeometry>
        </mxCell>
        <mxCell id="ViGbl6Z4eLXLllgYi30E-42" style="edgeStyle=orthogonalEdgeStyle;rounded=0;orthogonalLoop=1;jettySize=auto;html=1;entryX=0;entryY=0.5;entryDx=0;entryDy=0;" parent="1" source="ViGbl6Z4eLXLllgYi30E-10" target="ViGbl6Z4eLXLllgYi30E-38" edge="1">
          <mxGeometry relative="1" as="geometry">
            <Array as="points">
              <mxPoint x="732" y="460" />
              <mxPoint x="732" y="565" />
            </Array>
          </mxGeometry>
        </mxCell>
        <mxCell id="ViGbl6Z4eLXLllgYi30E-43" style="edgeStyle=orthogonalEdgeStyle;rounded=0;orthogonalLoop=1;jettySize=auto;html=1;entryX=0;entryY=0.5;entryDx=0;entryDy=0;" parent="1" source="ViGbl6Z4eLXLllgYi30E-7" target="ViGbl6Z4eLXLllgYi30E-29" edge="1">
          <mxGeometry relative="1" as="geometry" />
        </mxCell>
        <mxCell id="ViGbl6Z4eLXLllgYi30E-44" value="" style="rounded=0;whiteSpace=wrap;html=1;fillColor=none;" parent="1" vertex="1">
          <mxGeometry x="70" y="130" width="580" height="410" as="geometry" />
        </mxCell>
        <mxCell id="ViGbl6Z4eLXLllgYi30E-45" value="&lt;font style=&quot;font-size: 24px;&quot;&gt;&lt;b&gt;CRM&lt;/b&gt;&lt;/font&gt;" style="rounded=1;whiteSpace=wrap;html=1;fillColor=#dae8fc;strokeColor=#6c8ebf;" parent="1" vertex="1">
          <mxGeometry x="270" y="90" width="120" height="60" as="geometry" />
        </mxCell>
        <mxCell id="ViGbl6Z4eLXLllgYi30E-46" value="" style="rounded=0;whiteSpace=wrap;html=1;fillColor=none;" parent="1" vertex="1">
          <mxGeometry x="800" y="120" width="380" height="490" as="geometry" />
        </mxCell>
        <mxCell id="ViGbl6Z4eLXLllgYi30E-47" value="&lt;font style=&quot;font-size: 22px;&quot;&gt;&lt;b&gt;ERP&lt;/b&gt;&lt;/font&gt;" style="rounded=1;whiteSpace=wrap;html=1;fillColor=#dae8fc;strokeColor=#6c8ebf;" parent="1" vertex="1">
          <mxGeometry x="930" y="80" width="120" height="60" as="geometry" />
        </mxCell>
        <mxCell id="jEmDV5HCGYfVqGR4o5Ys-1" value="&lt;font style=&quot;font-size: 18px;&quot;&gt;&lt;b&gt;PRODUCT&lt;/b&gt;&lt;/font&gt;" style="text;html=1;align=center;verticalAlign=middle;whiteSpace=wrap;rounded=0;fillColor=#f8cecc;strokeColor=#b85450;" vertex="1" parent="1">
          <mxGeometry x="890" y="260" width="190" height="40" as="geometry" />
        </mxCell>
        <mxCell id="jEmDV5HCGYfVqGR4o5Ys-2" value="&lt;font style=&quot;font-size: 18px;&quot;&gt;&lt;b&gt;PRODUCT&lt;/b&gt;&lt;/font&gt;" style="text;html=1;align=center;verticalAlign=middle;whiteSpace=wrap;rounded=0;fillColor=#f8cecc;strokeColor=#b85450;" vertex="1" parent="1">
          <mxGeometry x="430" y="280" width="140" height="40" as="geometry" />
        </mxCell>
        <mxCell id="jEmDV5HCGYfVqGR4o5Ys-3" value="&lt;span style=&quot;font-size: 18px;&quot;&gt;&lt;b&gt;SALES&lt;/b&gt;&lt;/span&gt;" style="text;html=1;align=center;verticalAlign=middle;whiteSpace=wrap;rounded=0;fillColor=#e1d5e7;strokeColor=#9673a6;" vertex="1" parent="1">
          <mxGeometry x="120" y="330" width="140" height="40" as="geometry" />
        </mxCell>
        <mxCell id="jEmDV5HCGYfVqGR4o5Ys-4" value="&lt;span style=&quot;font-size: 18px;&quot;&gt;&lt;b&gt;CUSTOMER&lt;/b&gt;&lt;/span&gt;" style="text;html=1;align=center;verticalAlign=middle;whiteSpace=wrap;rounded=0;fillColor=#d5e8d4;strokeColor=#82b366;" vertex="1" parent="1">
          <mxGeometry x="440" y="470" width="140" height="40" as="geometry" />
        </mxCell>
        <mxCell id="jEmDV5HCGYfVqGR4o5Ys-5" value="&lt;span style=&quot;font-size: 18px;&quot;&gt;&lt;b&gt;CUSTOMER&lt;/b&gt;&lt;/span&gt;" style="text;html=1;align=center;verticalAlign=middle;whiteSpace=wrap;rounded=0;fillColor=#d5e8d4;strokeColor=#82b366;" vertex="1" parent="1">
          <mxGeometry x="885" y="580" width="195" height="40" as="geometry" />
        </mxCell>
        <mxCell id="jEmDV5HCGYfVqGR4o5Ys-7" value="&lt;span style=&quot;font-size: 18px;&quot;&gt;&lt;b&gt;CUSTOMER&lt;/b&gt;&lt;/span&gt;" style="text;html=1;align=center;verticalAlign=middle;whiteSpace=wrap;rounded=0;fillColor=#d5e8d4;strokeColor=#82b366;" vertex="1" parent="1">
          <mxGeometry x="880" y="420" width="190" height="40" as="geometry" />
        </mxCell>
        <mxCell id="jEmDV5HCGYfVqGR4o5Ys-8" style="edgeStyle=orthogonalEdgeStyle;rounded=0;orthogonalLoop=1;jettySize=auto;html=1;exitX=0.5;exitY=1;exitDx=0;exitDy=0;" edge="1" parent="1" source="jEmDV5HCGYfVqGR4o5Ys-2" target="jEmDV5HCGYfVqGR4o5Ys-2">
          <mxGeometry relative="1" as="geometry" />
        </mxCell>
      </root>
    </mxGraphModel>
  </diagram>
</mxfile>
